# xmcd CD database file
#
# Track frame offsets:
#	150
#	17700
#	39001
#	60318
#	73958
#	97187
#	110950
#	124176
#	155116
#	177813
#	187370
#	202933
#	224009
#	234798
#
# Disc length: 3402 seconds
#
# Revision: 1
# Processed by: cddbd v1.5.2PL0 Copyright (c) Steve Scherf et al.
# Submitted via: CDex 1.51
#
DISCID=cf0d480e
DTITLE=White Hots (with relish) - Live at the Clarissa room
DYEAR=2004
DGENRE=Jazz
TTITLE0=My Babe
TTITLE1=I Got Rhythm
TTITLE2=Things Ain't What They Used To Be
TTITLE3=White Hot's Theme
TTITLE4=Ain't No Sunshine
TTITLE5=Minor Swing
TTITLE6=Gerontology
TTITLE7=Watermelon Man
TTITLE8=Moonglow
TTITLE9=Cherry Pink and Apple Blossom White
TTITLE10=Benny's Bugle
TTITLE11=Floyd's Guitar Blues
TTITLE12=I've Found a New Baby
TTITLE13=Runaway Tango
EXTD=YEAR: 2004
EXTT0=
EXTT1=
EXTT2=
EXTT3=
EXTT4=
EXTT5=
EXTT6=
EXTT7=
EXTT8=
EXTT9=
EXTT10=
EXTT11=
EXTT12=
EXTT13=
PLAYORDER=
